<?xml version="1.0" encoding="utf-8"?>
<!-- Generator: Adobe Illustrator 16.0.0, SVG Export Plug-In . SVG Version: 6.00 Build 0)  -->
<!DOCTYPE svg PUBLIC "-//W3C//DTD SVG 1.0//EN" "http://www.w3.org/TR/2001/REC-SVG-20010904/DTD/svg10.dtd">
<svg version="1.0" id="Layer_3" xmlns="http://www.w3.org/2000/svg" xmlns:xlink="http://www.w3.org/1999/xlink" x="0px" y="0px"
	 width="998px" height="768px" viewBox="-76.401 -54.085 998 768" enable-background="new -76.401 -54.085 998 768"
	 xml:space="preserve">
<g>
	<path fill="#222829" d="M913.31,667.416c0,22.775-18.595,41.305-41.452,41.305H-26.66c-22.857,0-41.452-18.529-41.452-41.305
		V-10.982c0-22.774,18.596-41.304,41.452-41.304h898.518c22.858,0,41.452,18.529,41.452,41.304V667.416z"/>
	
		<linearGradient id="SVGID_1_" gradientUnits="userSpaceOnUse" x1="-116.2686" y1="14.438" x2="576.6672" y2="921.4887" gradientTransform="matrix(8.979319e-11 -1 -1 -8.979319e-11 882.1968 552.0259)">
		<stop  offset="0" style="stop-color:#000000"/>
		<stop  offset="0.3238" style="stop-color:#070707"/>
		<stop  offset="0.8104" style="stop-color:#1C1C1C"/>
		<stop  offset="1" style="stop-color:#262626"/>
	</linearGradient>
	<path fill="url(#SVGID_1_)" d="M903.544,666.356c0,18.162-14.844,32.941-33.088,32.941H-25.26
		c-18.245,0-33.088-14.779-33.088-32.941V-9.924c0-18.163,14.843-32.94,33.088-32.94h895.716c18.244,0,33.088,14.777,33.088,32.94
		V666.356z"/>
	
		<linearGradient id="SVGID_2_" gradientUnits="userSpaceOnUse" x1="166.248" y1="124.3574" x2="166.248" y2="170.3564" gradientTransform="matrix(-8.979319e-11 1 1 8.979319e-11 726.4292 161.7241)">
		<stop  offset="0" style="stop-color:#000000"/>
		<stop  offset="0.3238" style="stop-color:#070707"/>
		<stop  offset="0.8104" style="stop-color:#1C1C1C"/>
		<stop  offset="1" style="stop-color:#262626"/>
	</linearGradient>
	<circle fill="url(#SVGID_2_)" cx="873.305" cy="327.973" r="20.959"/>
	<g>
		<path fill="#D1D3D4" d="M881.572,323.84v8.266c0,2.123-1.848,3.849-4.117,3.849h-8.299c-2.271,0-4.117-1.726-4.117-3.849v-8.266
			c0-2.123,1.847-3.849,4.117-3.849h8.299C879.724,319.992,881.572,321.717,881.572,323.84z M866.215,332.106
			c0,1.473,1.319,2.672,2.941,2.672h8.299c1.622,0,2.94-1.199,2.94-2.672v-8.267c0-1.474-1.318-2.672-2.94-2.672h-8.299
			c-1.622,0-2.941,1.198-2.941,2.672V332.106z"/>
	</g>
	<circle fill="#414042" cx="-20.999" cy="328.216" r="5.371"/>
</g>
</svg>
