# Blender v2.75 (sub 0) OBJ File: 'folder.blend'
# www.blender.org
mtllib folder.mtl
o Cube
v 0.999391 0.049906 -0.999999
v -0.999391 0.052045 -1.000000
v -0.000001 -0.041328 1.000000
v 0.999390 0.049906 1.000001
v -0.999391 0.052045 1.000000
v 0.000000 -0.041328 -1.000000
v -0.111044 -0.037791 1.000000
v -0.222087 -0.034516 1.000000
v -0.333131 -0.027981 1.000000
v -0.444174 -0.019513 1.000000
v -0.555218 -0.009106 1.000000
v -0.666261 0.003246 1.000000
v -0.777304 0.017550 1.000000
v -0.888348 0.033814 1.000000
v -0.111043 -0.037791 -1.000000
v -0.222087 -0.034516 -1.000000
v -0.333130 -0.027981 -1.000000
v -0.444174 -0.019513 -1.000000
v -0.555217 -0.009106 -1.000000
v -0.666260 0.003246 -1.000000
v -0.777304 0.017550 -1.000000
v -0.888347 0.033814 -1.000000
v 0.888348 0.031931 -0.999999
v 0.777304 0.015918 -0.999999
v 0.666261 0.001860 -1.000000
v 0.555218 -0.010252 -1.000000
v 0.444174 -0.020422 -1.000000
v 0.333131 -0.028657 -1.000000
v 0.222087 -0.034963 -1.000000
v 0.111044 -0.038014 -1.000000
v 0.888347 0.031931 1.000001
v 0.777303 0.015918 1.000000
v 0.666260 0.001860 1.000000
v 0.555217 -0.010252 1.000000
v 0.444173 -0.020422 1.000000
v 0.333130 -0.028657 1.000000
v 0.222086 -0.034963 1.000000
v 0.111043 -0.038014 1.000000
v -1.001941 -0.027583 1.000000
v -1.001941 -0.027583 -1.000000
v 1.011924 -0.027007 1.000000
v 1.027206 -0.026126 0.996955
v 1.040162 -0.025378 0.988284
v 1.011925 -0.027007 -1.000000
v 1.048819 -0.024879 -0.975307
v -1.011925 -0.027007 1.000000
v -1.048819 -0.024879 0.975307
v -1.040162 -0.025379 0.988284
v 1.001941 -0.027583 -1.000000
v 1.001941 -0.027583 1.000000
v 1.051858 -0.024703 0.960000
v 1.048818 -0.024879 0.975308
v 1.027207 -0.026126 -0.996955
v 1.040162 -0.025378 -0.988284
v 1.051858 -0.024703 -0.960000
v -1.051858 -0.024704 -0.960000
v -1.048818 -0.024879 -0.975308
v -1.040162 -0.025379 -0.988285
v -1.027206 -0.026126 -0.996956
v -1.011924 -0.027007 -1.000000
v -1.027207 -0.026126 0.996955
v -1.051858 -0.024704 0.960000
v 0.999391 0.049906 0.000001
v 0.888347 0.031931 0.000001
v 0.777304 0.015918 0.000000
v 0.666260 0.001860 0.000000
v 0.555217 -0.010252 0.000000
v 0.444174 -0.020422 0.000000
v 0.333130 -0.028657 0.000000
v 0.222087 -0.034963 0.000000
v 0.111043 -0.038014 0.000000
v -0.999391 0.052045 -0.000000
v -0.111044 -0.037791 0.000000
v -0.222087 -0.034516 0.000000
v -0.333130 -0.027981 0.000000
v -0.444174 -0.019513 0.000000
v -0.555217 -0.009106 -0.000000
v -0.666261 0.003246 -0.000000
v -0.777304 0.017550 -0.000000
v -0.888348 0.033814 -0.000000
v -0.000000 -0.039127 0.000000
v -1.001941 -0.027583 -0.000000
v 1.001941 -0.027583 0.000000
v -0.000000 -0.041328 0.000000
v 0.500970 -0.045473 1.000000
v 0.500971 -0.045473 -1.000000
v 0.500971 -0.045473 0.000000
v -0.500970 -0.045473 -1.000000
v -0.500971 -0.045473 1.000000
v -0.500971 -0.045473 -0.000000
vt 0.753480 0.527833
vt 0.507064 0.527830
vt 0.507064 0.500101
vt 0.753480 0.500104
vt 0.753480 0.720331
vt 0.753480 0.747694
vt 0.507060 0.747695
vt 0.507061 0.720326
vt 0.999898 0.720327
vt 0.999899 0.747695
vt 0.507062 0.692941
vt 0.753480 0.692945
vt 0.507062 0.665531
vt 0.753480 0.665534
vt 0.507062 0.638088
vt 0.753480 0.638092
vt 0.507063 0.610606
vt 0.753480 0.610609
vt 0.507063 0.583074
vt 0.753480 0.583077
vt 0.507063 0.555485
vt 0.753480 0.555488
vt 0.753479 0.995237
vt 0.507064 0.995239
vt 0.507064 0.967520
vt 0.753479 0.967518
vt 0.507063 0.939874
vt 0.753479 0.939872
vt 0.507063 0.912293
vt 0.753479 0.912290
vt 0.507063 0.884768
vt 0.753480 0.884765
vt 0.507062 0.857291
vt 0.753480 0.857287
vt 0.507062 0.829852
vt 0.753480 0.829849
vt 0.507062 0.802445
vt 0.753480 0.802442
vt 0.507061 0.775062
vt 0.753480 0.775058
vt 0.493660 0.509602
vt 0.493659 0.512024
vt 0.492920 0.515732
vt 0.490819 0.518874
vt 0.487675 0.520973
vt 0.483967 0.521709
vt 0.025169 0.521709
vt 0.009396 0.518364
vt 0.003559 0.514291
vt 0.000848 0.510014
vt 0.000101 0.505674
vt 0.000233 0.501336
vt 0.250266 0.509757
vt 0.014740 0.012114
vt 0.014752 0.009701
vt 0.015506 0.006012
vt 0.017615 0.002892
vt 0.020757 0.000816
vt 0.024454 0.000101
vt 0.481912 0.002334
vt 0.497642 0.005750
vt 0.503448 0.009845
vt 0.506134 0.014128
vt 0.506858 0.018463
vt 0.506705 0.022793
vt 0.257181 0.013154
vt 0.999898 0.775063
vt 0.999898 0.802446
vt 0.999897 0.829853
vt 0.999897 0.857291
vt 0.999897 0.884768
vt 0.999896 0.912293
vt 0.999896 0.939875
vt 0.999896 0.967520
vt 0.999895 0.995239
vt 0.999896 0.555485
vt 0.999896 0.527831
vt 0.999896 0.583074
vt 0.999897 0.610606
vt 0.999897 0.638088
vt 0.999897 0.665531
vt 0.999898 0.692941
vt 0.999895 0.500102
vt 0.252186 0.385664
vt 0.004393 0.378306
vt 0.008554 0.255276
vt 0.254107 0.261571
vt 0.255644 0.137363
vt 0.011647 0.133695
vt 0.502317 0.144740
vt 0.497929 0.266687
vt 0.495795 0.388145
vn -0.162000 -0.986800 -0.000000
vn -0.021900 -0.999800 -0.001100
vn -0.021900 -0.999800 0.001100
vn -0.029500 -0.999600 -0.000000
vn -0.058800 -0.998300 -0.000000
vn -0.076000 -0.997100 -0.000000
vn -0.093300 -0.995600 -0.000000
vn -0.110600 -0.993900 -0.000000
vn -0.127800 -0.991800 -0.000000
vn -0.144900 -0.989400 -0.000000
vn 0.159800 -0.987200 0.000000
vn 0.142700 -0.989800 0.000000
vn 0.125600 -0.992100 0.000000
vn 0.108400 -0.994100 0.000000
vn 0.091200 -0.995800 0.000000
vn 0.074000 -0.997300 0.000000
vn 0.056700 -0.998400 0.000000
vn 0.027500 -0.999600 0.000000
vn 0.057600 -0.998300 0.000000
vn -0.057600 -0.998300 -0.000000
vn 0.019900 -0.999800 0.001100
vn 0.019900 -0.999800 -0.001100
vn -0.058700 -0.998300 -0.000000
vn -0.008300 -1.000000 -0.000000
vn 0.008300 -1.000000 0.000000
vn 0.035700 -0.999400 -0.000000
vn -0.035700 -0.999400 -0.000000
usemtl Material
s off
f 80/1/1 14/2/1 5/3/1 72/4/1
f 73/5/2 81/6/2 3/7/2 7/8/2
f 73/5/3 15/9/3 6/10/3 81/6/3
f 73/5/4 7/8/4 8/11/4 74/12/4
f 74/12/5 8/11/5 9/13/5 75/14/5
f 75/14/6 9/13/6 10/15/6 76/16/6
f 76/16/7 10/15/7 11/17/7 77/18/7
f 77/18/8 11/17/8 12/19/8 78/20/8
f 78/20/9 12/19/9 13/21/9 79/22/9
f 79/22/10 13/21/10 14/2/10 80/1/10
f 63/23/11 4/24/11 31/25/11 64/26/11
f 64/26/12 31/25/12 32/27/12 65/28/12
f 65/28/13 32/27/13 33/29/13 66/30/13
f 66/30/14 33/29/14 34/31/14 67/32/14
f 67/32/15 34/31/15 35/33/15 68/34/15
f 68/34/16 35/33/16 36/35/16 69/36/16
f 69/36/17 36/35/17 37/37/17 70/38/17
f 70/38/18 37/37/18 38/39/18 71/40/18
f 49/41/19 44/42/19 53/43/19 54/44/19 45/45/19 55/46/19 51/47/19 52/48/19 43/49/19 42/50/19 41/51/19 50/52/19 83/53/19
f 39/54/20 46/55/20 61/56/20 48/57/20 47/58/20 62/59/20 56/60/20 57/61/20 58/62/20 59/63/20 60/64/20 40/65/20 82/66/20
f 6/10/21 30/67/21 71/40/21 81/6/21
f 3/7/22 81/6/22 71/40/22 38/39/22
f 29/68/18 70/38/18 71/40/18 30/67/18
f 28/69/17 69/36/17 70/38/17 29/68/17
f 27/70/16 68/34/16 69/36/16 28/69/16
f 26/71/15 67/32/15 68/34/15 27/70/15
f 25/72/14 66/30/14 67/32/14 26/71/14
f 24/73/13 65/28/13 66/30/13 25/72/13
f 23/74/12 64/26/12 65/28/12 24/73/12
f 1/75/11 63/23/11 64/26/11 23/74/11
f 21/76/10 79/22/10 80/1/10 22/77/10
f 20/78/9 78/20/9 79/22/9 21/76/9
f 19/79/8 77/18/8 78/20/8 20/78/8
f 18/80/7 76/16/7 77/18/7 19/79/7
f 17/81/6 75/14/6 76/16/6 18/80/6
f 16/82/23 74/12/23 75/14/23 17/81/23
f 15/9/4 73/5/4 74/12/4 16/82/4
f 22/77/1 80/1/1 72/4/1 2/83/1
f 87/84/24 85/85/24 3/86/24 84/87/24
f 90/88/25 84/87/25 3/86/25 89/89/25
f 88/90/25 6/91/25 84/87/25 90/88/25
f 86/92/24 87/84/24 84/87/24 6/91/24
f 49/41/26 83/53/26 87/84/26 86/92/26
f 83/53/26 50/52/26 85/85/26 87/84/26
f 40/65/27 88/90/27 90/88/27 82/66/27
f 82/66/27 90/88/27 89/89/27 39/54/27
