# Blender v2.75 (sub 0) OBJ File: 'folder-extruded.blend'
# www.blender.org
mtllib folder-extruded.mtl
o Cube
v 0.999391 0.049906 -0.999999
v -0.999391 0.052045 -1.000000
v -0.000001 -0.039632 1.000000
v 0.999390 0.049906 1.000001
v -0.999391 0.052045 1.000000
v -0.000000 -0.051540 0.000000
v -0.111044 -0.037791 1.000000
v -0.222087 -0.034516 1.000000
v -0.333131 -0.027981 1.000000
v -0.444174 -0.019513 1.000000
v -0.555218 -0.009106 1.000000
v -0.666261 0.003246 1.000000
v -0.777304 0.017550 1.000000
v -0.888348 0.033814 1.000000
v -0.111043 -0.037791 -1.000000
v -0.222087 -0.034516 -1.000000
v -0.333130 -0.027981 -1.000000
v -0.444174 -0.019513 -1.000000
v -0.555217 -0.009106 -1.000000
v -0.666260 0.003246 -1.000000
v -0.777304 0.017550 -1.000000
v -0.888347 0.033814 -1.000000
v 0.888348 0.031931 -0.999999
v 0.777304 0.015918 -0.999999
v 0.666261 0.001860 -1.000000
v 0.555218 -0.010252 -1.000000
v 0.444174 -0.020422 -1.000000
v 0.333131 -0.028657 -1.000000
v 0.222087 -0.034963 -1.000000
v 0.111044 -0.038014 -1.000000
v 0.888347 0.031931 1.000001
v 0.777303 0.015918 1.000000
v 0.666260 0.001860 1.000000
v 0.555217 -0.010252 1.000000
v 0.444173 -0.020422 1.000000
v 0.333130 -0.028657 1.000000
v 0.222086 -0.034963 1.000000
v 0.111043 -0.038014 1.000000
v -1.001941 -0.033650 1.000000
v -1.001941 -0.033650 -1.000000
v 1.011924 -0.033074 1.000000
v 1.027206 -0.032192 0.996955
v 1.040162 -0.031445 0.988284
v 1.011925 -0.033074 -1.000000
v 1.048819 -0.030945 -0.975307
v -1.011925 -0.033074 1.000000
v -1.048819 -0.030946 0.975307
v -1.040162 -0.031445 0.988284
v 1.001941 -0.033650 -1.000000
v 1.001941 -0.033650 1.000000
v 1.051858 -0.030770 0.960000
v 1.048818 -0.030945 0.975308
v 1.027207 -0.032192 -0.996955
v 1.040162 -0.031445 -0.988284
v 1.051858 -0.030770 -0.960000
v -1.051858 -0.030771 -0.960000
v -1.048818 -0.030946 -0.975308
v -1.040162 -0.031445 -0.988285
v -1.027206 -0.032193 -0.996956
v -1.011924 -0.033074 -1.000000
v -1.027207 -0.032193 0.996955
v -1.051858 -0.030771 0.960000
v 0.999391 0.049906 0.000001
v 0.888347 0.031931 0.000001
v 0.777304 0.015918 0.000000
v 0.666260 0.001860 0.000000
v 0.555217 -0.010252 0.000000
v 0.444174 -0.020422 0.000000
v 0.333130 -0.028657 0.000000
v 0.222087 -0.034963 0.000000
v 0.111043 -0.038014 0.000000
v -0.999391 0.052045 -0.000000
v -0.111044 -0.037791 0.000000
v -0.222087 -0.034516 0.000000
v -0.333130 -0.027981 0.000000
v -0.444174 -0.019513 0.000000
v -0.555217 -0.009106 -0.000000
v -0.666261 0.003246 -0.000000
v -0.777304 0.017550 -0.000000
v -0.888348 0.033814 -0.000000
v 0.000000 -0.051540 -1.000000
v -1.001941 -0.033650 -0.000000
v 1.001941 -0.033650 0.000000
v -0.000000 -0.051540 1.000000
v 0.500970 -0.051540 1.000000
v 0.500971 -0.051540 -1.000000
v 0.500971 -0.051540 0.000000
v -0.500970 -0.051540 -1.000000
v -0.500971 -0.051540 1.000000
v -0.500971 -0.051540 -0.000000
v 0.000000 -0.039632 -1.000000
v -0.000000 -0.039632 0.000000
v -0.000000 -0.059124 0.000000
v -1.001941 -0.041234 1.000000
v -1.001941 -0.041234 -1.000000
v 1.011924 -0.040658 1.000000
v 1.027206 -0.039776 0.996955
v 1.040162 -0.039028 0.988284
v 1.011925 -0.040658 -1.000000
v 1.048819 -0.038529 -0.975307
v -1.011925 -0.040658 1.000000
v -1.048819 -0.038529 0.975307
v -1.040162 -0.039029 0.988284
v 1.001941 -0.041234 -1.000000
v 1.001941 -0.041234 1.000000
v 1.051858 -0.038354 0.960000
v 1.048818 -0.038529 0.975308
v 1.027207 -0.039776 -0.996955
v 1.040162 -0.039028 -0.988284
v 1.051858 -0.038354 -0.960000
v -1.051858 -0.038354 -0.960000
v -1.048818 -0.038529 -0.975308
v -1.040162 -0.039029 -0.988285
v -1.027206 -0.039776 -0.996956
v -1.011924 -0.040658 -1.000000
v -1.027207 -0.039776 0.996955
v -1.051858 -0.038354 0.960000
v 0.000000 -0.059124 -1.000000
v -1.001941 -0.041234 -0.000000
v 1.001941 -0.041234 0.000000
v -0.000000 -0.059124 1.000000
v 0.500970 -0.059124 1.000000
v 0.500971 -0.059124 -1.000000
v 0.500971 -0.059124 0.000000
v -0.500970 -0.059124 -1.000000
v -0.500971 -0.059124 1.000000
v -0.500971 -0.059124 -0.000000
v 0.999395 0.052939 -0.999999
v -0.999388 0.055079 -1.000000
v 0.000003 -0.036599 1.000000
v 0.999393 0.052939 1.000001
v -0.999388 0.055079 1.000000
v -0.111041 -0.034758 1.000000
v -0.222084 -0.031483 1.000000
v -0.333128 -0.024948 1.000000
v -0.444171 -0.016480 1.000000
v -0.555214 -0.006073 1.000000
v -0.666258 0.006279 1.000000
v -0.777301 0.020583 1.000000
v -0.888345 0.036847 1.000000
v -0.111040 -0.034758 -1.000000
v -0.222083 -0.031483 -1.000000
v -0.333127 -0.024948 -1.000000
v -0.444170 -0.016480 -1.000000
v -0.555214 -0.006073 -1.000000
v -0.666257 0.006279 -1.000000
v -0.777301 0.020583 -1.000000
v -0.888344 0.036847 -1.000000
v 0.888351 0.034965 -0.999999
v 0.777308 0.018952 -0.999999
v 0.666264 0.004893 -1.000000
v 0.555221 -0.007218 -1.000000
v 0.444177 -0.017388 -1.000000
v 0.333134 -0.025623 -1.000000
v 0.222090 -0.031929 -1.000000
v 0.111047 -0.034980 -1.000000
v 0.888350 0.034965 1.000001
v 0.777307 0.018952 1.000000
v 0.666263 0.004893 1.000000
v 0.555220 -0.007218 1.000000
v 0.444176 -0.017388 1.000000
v 0.333133 -0.025623 1.000000
v 0.222090 -0.031929 1.000000
v 0.111046 -0.034980 1.000000
v 0.999394 0.052939 0.000001
v 0.888351 0.034965 0.000001
v 0.777307 0.018952 0.000000
v 0.666264 0.004893 0.000000
v 0.555220 -0.007218 0.000000
v 0.444177 -0.017388 0.000000
v 0.333133 -0.025623 0.000000
v 0.222090 -0.031929 0.000000
v 0.111046 -0.034980 0.000000
v -0.999388 0.055079 -0.000000
v -0.111040 -0.034758 0.000000
v -0.222084 -0.031483 0.000000
v -0.333127 -0.024948 0.000000
v -0.444171 -0.016480 0.000000
v -0.555214 -0.006073 -0.000000
v -0.666258 0.006279 -0.000000
v -0.777301 0.020583 -0.000000
v -0.888344 0.036847 -0.000000
v 0.000003 -0.036599 -1.000000
v 0.000003 -0.036599 0.000000
vt 0.728253 0.250018
vt 0.728253 0.476456
vt 0.499239 0.250018
vt 0.499239 0.023579
vt 0.270226 0.250018
vt 0.270226 0.023579
vt 0.270226 0.476456
vt 0.446798 0.508651
vt 0.446799 0.745459
vt 0.499503 0.745459
vt 0.446799 0.982267
vt 0.499503 0.982267
vt 0.499240 0.476456
vt 0.728253 0.023579
vt 0.552207 0.982267
vt 0.552207 0.745459
vt 0.552206 0.508651
vt 0.499504 0.508651
vt 0.077871 0.508651
vt 0.025167 0.508651
vt 0.025167 0.745459
vt 0.041212 0.250018
vt 0.018394 0.467399
vt 0.041213 0.476456
vt 0.394094 0.508651
vt 0.394095 0.745459
vt 0.341390 0.508651
vt 0.288687 0.508651
vt 0.288687 0.745459
vt 0.235983 0.508651
vt 0.235983 0.745459
vt 0.183279 0.508651
vt 0.183279 0.745459
vt 0.130575 0.508651
vt 0.130575 0.745459
vt 0.973838 0.508651
vt 0.921134 0.508651
vt 0.921134 0.745459
vt 0.868430 0.508651
vt 0.868430 0.745459
vt 0.815726 0.508651
vt 0.815726 0.745459
vt 0.763022 0.508651
vt 0.710318 0.508651
vt 0.710318 0.745459
vt 0.657614 0.508651
vt 0.604910 0.508651
vt 0.604910 0.745459
vt 0.957267 0.476456
vt 0.957267 0.250018
vt 0.980086 0.467399
vt 0.657614 0.745459
vt 0.604911 0.982267
vt 0.657615 0.982267
vt 0.763022 0.745459
vt 0.710319 0.982267
vt 0.815727 0.982267
vt 0.868430 0.982267
vt 0.973838 0.745459
vt 0.921135 0.982267
vt 0.077871 0.745459
vt 0.077871 0.982267
vt 0.130575 0.982267
vt 0.183279 0.982267
vt 0.235983 0.982267
vt 0.341391 0.982267
vt 0.341391 0.745459
vt 0.025167 0.982267
vt 0.957267 0.023579
vt 0.980085 0.032637
vt 0.961830 0.476456
vt 0.974739 0.473803
vt 0.968817 0.475767
vt 0.978696 0.470865
vt 0.961830 0.023579
vt 0.978696 0.029170
vt 0.968816 0.024268
vt 0.974739 0.026232
vt 0.036649 0.023579
vt 0.041212 0.023579
vt 0.018393 0.032637
vt 0.036649 0.476456
vt 0.019783 0.470865
vt 0.029663 0.475767
vt 0.023740 0.473803
vt 0.023740 0.026232
vt 0.019783 0.029170
vt 0.029663 0.024269
vt 0.763023 0.982267
vt 0.973838 0.982267
vt 0.288687 0.982267
vt 0.394095 0.982267
vn -0.000000 1.000000 0.000000
vn 0.000000 -1.000000 -0.000000
vn -0.016600 -0.999900 0.000000
vn 0.014600 -0.999900 0.000000
vn -0.000000 0.000000 1.000000
vn 0.000000 0.000000 -1.000000
vn 0.016600 0.999900 -0.000000
vn -0.014600 0.999900 -0.000000
vn -0.162000 -0.986800 -0.000000
vn -0.057600 -0.998300 -0.000000
vn -0.029500 -0.999600 -0.000000
vn -0.058800 -0.998300 -0.000000
vn -0.076000 -0.997100 -0.000000
vn -0.093300 -0.995600 -0.000000
vn -0.110600 -0.993900 -0.000000
vn -0.127800 -0.991800 -0.000000
vn -0.144900 -0.989400 -0.000000
vn 0.159800 -0.987200 0.000000
vn 0.142700 -0.989800 0.000000
vn 0.125600 -0.992100 0.000000
vn 0.108400 -0.994100 0.000000
vn 0.091200 -0.995800 0.000000
vn 0.074000 -0.997300 0.000000
vn 0.056700 -0.998400 0.000000
vn 0.027500 -0.999600 0.000000
vn -0.057600 0.998300 0.000000
vn 0.057600 0.998300 0.000000
vn -0.058700 -0.998300 -0.000000
vn 0.057600 -0.998300 0.000000
vn -0.035700 0.999400 -0.000000
vn 0.035700 0.999400 0.000000
vn 0.035700 -0.999400 0.000000
vn -0.035700 -0.999400 -0.000000
vn -1.000000 0.000000 -0.000000
vn 0.831900 0.000000 0.554900
vn 0.556200 0.000000 0.831000
vn 0.195400 0.000000 0.980700
vn 0.195400 0.000000 -0.980700
vn -0.831900 0.000000 0.554900
vn 0.831900 0.000000 -0.554900
vn 0.980800 0.000000 -0.194800
vn 0.980800 0.000000 0.194800
vn 0.556200 0.000000 -0.831000
vn -0.195400 0.000000 0.980700
vn 1.000000 0.000000 0.000000
vn -0.556200 0.000000 0.831000
vn -0.980800 0.000000 -0.194800
vn -0.980800 0.000000 0.194800
vn -0.831900 0.000000 -0.554900
vn -0.556200 0.000000 -0.831000
vn -0.195400 0.000000 -0.980700
vn 0.162000 0.986800 0.000000
vn 0.029500 0.999600 0.000000
vn 0.058800 0.998300 0.000000
vn 0.076000 0.997100 0.000000
vn 0.093300 0.995600 0.000000
vn 0.110600 0.993900 0.000000
vn 0.127800 0.991800 0.000000
vn 0.144900 0.989400 0.000000
vn -0.159800 0.987200 -0.000000
vn -0.142700 0.989800 -0.000000
vn -0.125600 0.992100 -0.000000
vn -0.108400 0.994100 -0.000000
vn -0.091200 0.995800 -0.000000
vn -0.074000 0.997300 -0.000000
vn -0.056700 0.998400 -0.000000
vn -0.027500 0.999600 -0.000000
vn 0.058700 0.998300 0.000000
vn 1.000000 -0.001100 0.000000
vn -1.000000 0.001100 -0.000000
vn -1.000000 0.001000 -0.000000
vn 1.000000 -0.001000 0.000000
usemtl Material
s off
f 87/1/1 86/2/1 6/3/1
f 84/4/1 90/5/1 89/6/1
f 6/3/1 88/7/1 90/5/1
f 124/1/2 93/3/2 123/2/2
f 7/8/3 73/9/3 92/10/3
f 15/11/3 91/12/3 92/10/3
f 6/3/1 86/2/1 81/13/1
f 85/14/1 6/3/1 84/4/1
f 87/1/1 6/3/1 85/14/1
f 121/4/2 126/6/2 127/5/2
f 30/15/4 71/16/4 92/10/4
f 92/10/4 71/16/4 38/17/4
f 6/3/1 90/5/1 84/4/1
f 81/13/1 88/7/1 6/3/1
f 93/3/2 127/5/2 125/7/2
f 93/3/2 118/13/2 123/2/2
f 122/14/2 121/4/2 93/3/2
f 124/1/2 122/14/2 93/3/2
f 93/3/2 121/4/2 127/5/2
f 118/13/2 93/3/2 125/7/2
f 89/6/5 126/6/5 121/4/5
f 86/2/6 123/2/6 118/13/6
f 81/13/6 118/13/6 125/7/6
f 84/4/5 121/4/5 122/14/5
f 130/18/7 184/10/7 175/9/7
f 141/11/7 175/9/7 184/10/7
f 183/12/8 184/10/8 173/16/8
f 130/18/8 164/17/8 173/16/8
f 38/17/5 164/17/5 130/18/5
f 183/12/6 156/15/6 30/15/6
f 15/11/6 141/11/6 183/12/6
f 130/18/5 133/8/5 7/8/5
f 3/18/3 7/8/3 92/10/3
f 73/9/3 15/11/3 92/10/3
f 91/12/4 30/15/4 92/10/4
f 3/18/4 92/10/4 38/17/4
f 84/4/5 89/6/5 121/4/5
f 81/13/6 86/2/6 118/13/6
f 88/7/6 81/13/6 125/7/6
f 85/14/5 84/4/5 122/14/5
f 133/8/7 130/18/7 175/9/7
f 183/12/7 141/11/7 184/10/7
f 156/15/8 183/12/8 173/16/8
f 184/10/8 130/18/8 173/16/8
f 3/18/5 38/17/5 130/18/5
f 91/12/6 183/12/6 30/15/6
f 91/12/6 15/11/6 183/12/6
f 3/18/5 130/18/5 7/8/5
usemtl Material_test.jpg
f 14/19/9 5/20/9 72/21/9
f 119/22/10 111/23/10 95/24/10
f 7/8/11 8/25/11 74/26/11
f 74/26/12 8/25/12 9/27/12
f 9/27/13 10/28/13 76/29/13
f 10/28/14 11/30/14 77/31/14
f 11/30/15 12/32/15 78/33/15
f 12/32/16 13/34/16 79/35/16
f 79/35/17 13/34/17 14/19/17
f 4/36/18 31/37/18 64/38/18
f 31/37/19 32/39/19 65/40/19
f 32/39/20 33/41/20 66/42/20
f 66/42/21 33/41/21 34/43/21
f 34/43/22 35/44/22 68/45/22
f 68/45/23 35/44/23 36/46/23
f 36/46/24 37/47/24 70/48/24
f 37/47/25 38/17/25 71/16/25
f 49/49/26 83/50/26 55/51/26
f 82/22/27 40/24/27 56/23/27
f 70/48/25 71/16/25 30/15/25
f 69/52/24 70/48/24 29/53/24
f 68/45/23 69/52/23 28/54/23
f 67/55/22 68/45/22 27/56/22
f 25/57/21 66/42/21 67/55/21
f 65/40/20 66/42/20 25/57/20
f 64/38/19 65/40/19 24/58/19
f 63/59/18 64/38/18 23/60/18
f 79/35/17 80/61/17 22/62/17
f 78/33/16 79/35/16 21/63/16
f 77/31/15 78/33/15 20/64/15
f 76/29/14 77/31/14 19/65/14
f 17/66/13 75/67/13 76/29/13
f 74/26/28 75/67/28 17/66/28
f 15/11/11 73/9/11 74/26/11
f 80/61/9 72/21/9 2/68/9
f 104/49/29 110/51/29 120/50/29
f 83/50/30 86/2/30 87/1/30
f 50/69/30 87/1/30 85/14/30
f 40/24/31 90/5/31 88/7/31
f 82/22/31 89/6/31 90/5/31
f 80/61/9 14/19/9 72/21/9
f 73/9/11 7/8/11 74/26/11
f 75/67/28 74/26/28 9/27/28
f 75/67/13 9/27/13 76/29/13
f 76/29/14 10/28/14 77/31/14
f 77/31/15 11/30/15 78/33/15
f 78/33/16 12/32/16 79/35/16
f 80/61/17 79/35/17 14/19/17
f 63/59/18 4/36/18 64/38/18
f 64/38/19 31/37/19 65/40/19
f 65/40/20 32/39/20 66/42/20
f 67/55/21 66/42/21 34/43/21
f 67/55/22 34/43/22 68/45/22
f 69/52/23 68/45/23 36/46/23
f 69/52/24 36/46/24 70/48/24
f 70/48/25 37/47/25 71/16/25
f 51/70/26 83/50/26 50/69/26
f 55/51/26 44/71/26 49/49/26
f 44/71/26 54/72/26 53/73/26
f 54/72/26 55/51/26 45/74/26
f 41/75/26 52/76/26 51/70/26
f 52/76/26 42/77/26 43/78/26
f 51/70/26 50/69/26 41/75/26
f 55/51/26 54/72/26 44/71/26
f 83/50/26 51/70/26 55/51/26
f 52/76/26 41/75/26 42/77/26
f 46/79/27 39/80/27 62/81/27
f 56/23/27 40/24/27 60/82/27
f 57/83/27 59/84/27 58/85/27
f 60/82/27 57/83/27 56/23/27
f 48/86/27 62/81/27 47/87/27
f 46/79/27 48/86/27 61/88/27
f 48/86/27 46/79/27 62/81/27
f 57/83/27 60/82/27 59/84/27
f 82/22/27 56/23/27 62/81/27
f 62/81/27 39/80/27 82/22/27
f 29/53/25 70/48/25 30/15/25
f 28/54/24 69/52/24 29/53/24
f 27/56/23 68/45/23 28/54/23
f 26/89/22 67/55/22 27/56/22
f 26/89/21 25/57/21 67/55/21
f 24/58/20 65/40/20 25/57/20
f 23/60/19 64/38/19 24/58/19
f 1/90/18 63/59/18 23/60/18
f 21/63/17 79/35/17 22/62/17
f 20/64/16 78/33/16 21/63/16
f 19/65/15 77/31/15 20/64/15
f 18/91/14 76/29/14 19/65/14
f 18/91/13 17/66/13 76/29/13
f 16/92/28 74/26/28 17/66/28
f 16/92/11 15/11/11 74/26/11
f 22/62/9 80/61/9 2/68/9
f 49/49/30 86/2/30 83/50/30
f 83/50/30 87/1/30 50/69/30
f 82/22/31 90/5/31 40/24/31
f 39/80/31 89/6/31 82/22/31
f 120/50/32 124/1/32 123/2/32
f 105/69/32 122/14/32 124/1/32
f 95/24/33 125/7/33 127/5/33
f 119/22/33 127/5/33 126/6/33
f 106/70/29 105/69/29 120/50/29
f 110/51/29 104/49/29 99/71/29
f 99/71/29 108/73/29 109/72/29
f 109/72/29 100/74/29 110/51/29
f 96/75/29 106/70/29 107/76/29
f 107/76/29 98/78/29 97/77/29
f 106/70/29 96/75/29 105/69/29
f 110/51/29 99/71/29 109/72/29
f 120/50/29 110/51/29 106/70/29
f 107/76/29 97/77/29 96/75/29
f 101/79/10 117/81/10 94/80/10
f 111/23/10 115/82/10 95/24/10
f 112/83/10 113/85/10 114/84/10
f 115/82/10 111/23/10 112/83/10
f 103/86/10 102/87/10 117/81/10
f 101/79/10 116/88/10 103/86/10
f 103/86/10 117/81/10 101/79/10
f 112/83/10 114/84/10 115/82/10
f 119/22/10 117/81/10 111/23/10
f 117/81/10 119/22/10 94/80/10
f 104/49/32 120/50/32 123/2/32
f 120/50/32 105/69/32 124/1/32
f 119/22/33 95/24/33 127/5/33
f 94/80/33 119/22/33 126/6/33
f 88/7/6 125/7/6 95/24/6
f 56/23/34 111/23/34 117/81/34
f 89/6/5 39/80/5 94/80/5
f 43/78/35 98/78/35 107/76/35
f 42/77/36 97/77/36 98/78/36
f 50/69/5 105/69/5 96/75/5
f 41/75/37 96/75/37 97/77/37
f 44/71/38 53/73/38 108/73/38
f 48/86/39 47/87/39 102/87/39
f 54/72/40 45/74/40 100/74/40
f 85/14/5 122/14/5 105/69/5
f 39/80/5 46/79/5 101/79/5
f 45/74/41 55/51/41 110/51/41
f 86/2/6 49/49/6 104/49/6
f 49/49/6 44/71/6 99/71/6
f 52/76/42 107/76/42 106/70/42
f 40/24/6 95/24/6 115/82/6
f 53/73/43 54/72/43 109/72/43
f 46/79/44 61/88/44 116/88/44
f 51/70/45 106/70/45 110/51/45
f 61/88/46 48/86/46 103/86/46
f 57/83/47 112/83/47 111/23/47
f 47/87/48 62/81/48 117/81/48
f 58/85/49 113/85/49 112/83/49
f 59/84/50 114/84/50 113/85/50
f 60/82/51 115/82/51 114/84/51
f 140/19/52 174/21/52 132/20/52
f 133/8/53 176/26/53 134/25/53
f 176/26/54 135/27/54 134/25/54
f 135/27/55 178/29/55 136/28/55
f 136/28/56 179/31/56 137/30/56
f 137/30/57 180/33/57 138/32/57
f 138/32/58 181/35/58 139/34/58
f 181/35/59 140/19/59 139/34/59
f 131/36/60 166/38/60 157/37/60
f 157/37/61 167/40/61 158/39/61
f 158/39/62 168/42/62 159/41/62
f 168/42/63 160/43/63 159/41/63
f 160/43/64 170/45/64 161/44/64
f 170/45/65 162/46/65 161/44/65
f 162/46/66 172/48/66 163/47/66
f 163/47/67 173/16/67 164/17/67
f 172/48/67 156/15/67 173/16/67
f 171/52/66 155/53/66 172/48/66
f 170/45/65 154/54/65 171/52/65
f 169/55/64 153/56/64 170/45/64
f 151/57/63 169/55/63 168/42/63
f 167/40/62 151/57/62 168/42/62
f 166/38/61 150/58/61 167/40/61
f 165/59/60 149/60/60 166/38/60
f 181/35/59 148/62/59 182/61/59
f 180/33/58 147/63/58 181/35/58
f 179/31/57 146/64/57 180/33/57
f 178/29/56 145/65/56 179/31/56
f 143/66/55 178/29/55 177/67/55
f 176/26/68 143/66/68 177/67/68
f 141/11/53 176/26/53 175/9/53
f 182/61/52 129/68/52 174/21/52
f 182/61/52 174/21/52 140/19/52
f 175/9/53 176/26/53 133/8/53
f 177/67/68 135/27/68 176/26/68
f 177/67/55 178/29/55 135/27/55
f 178/29/56 179/31/56 136/28/56
f 179/31/57 180/33/57 137/30/57
f 180/33/58 181/35/58 138/32/58
f 182/61/59 140/19/59 181/35/59
f 165/59/60 166/38/60 131/36/60
f 166/38/61 167/40/61 157/37/61
f 167/40/62 168/42/62 158/39/62
f 169/55/63 160/43/63 168/42/63
f 169/55/64 170/45/64 160/43/64
f 171/52/65 162/46/65 170/45/65
f 171/52/66 172/48/66 162/46/66
f 172/48/67 173/16/67 163/47/67
f 155/53/67 156/15/67 172/48/67
f 154/54/66 155/53/66 171/52/66
f 153/56/65 154/54/65 170/45/65
f 152/89/64 153/56/64 169/55/64
f 152/89/63 169/55/63 151/57/63
f 150/58/62 151/57/62 167/40/62
f 149/60/61 150/58/61 166/38/61
f 128/90/60 149/60/60 165/59/60
f 147/63/59 148/62/59 181/35/59
f 146/64/58 147/63/58 180/33/58
f 145/65/57 146/64/57 179/31/57
f 144/91/56 145/65/56 178/29/56
f 144/91/55 178/29/55 143/66/55
f 142/92/68 143/66/68 176/26/68
f 142/92/53 176/26/53 141/11/53
f 148/62/52 129/68/52 182/61/52
f 139/34/5 140/19/5 14/19/5
f 32/39/5 158/39/5 159/41/5
f 140/19/5 132/20/5 5/20/5
f 33/41/5 159/41/5 160/43/5
f 2/68/6 129/68/6 148/62/6
f 128/90/69 165/59/69 63/59/69
f 16/92/6 142/92/6 141/11/6
f 34/43/5 160/43/5 161/44/5
f 165/59/69 131/36/69 4/36/69
f 17/66/6 143/66/6 142/92/6
f 35/44/5 161/44/5 162/46/5
f 149/60/6 128/90/6 1/90/6
f 18/91/6 144/91/6 143/66/6
f 36/46/5 162/46/5 163/47/5
f 150/58/6 149/60/6 23/60/6
f 19/65/6 145/65/6 144/91/6
f 37/47/5 163/47/5 164/17/5
f 132/20/70 174/21/70 72/21/70
f 151/57/6 150/58/6 24/58/6
f 20/64/6 146/64/6 145/65/6
f 152/89/6 151/57/6 25/57/6
f 21/63/6 147/63/6 146/64/6
f 133/8/5 134/25/5 8/25/5
f 153/56/6 152/89/6 26/89/6
f 22/62/6 148/62/6 147/63/6
f 134/25/5 135/27/5 9/27/5
f 154/54/6 153/56/6 27/56/6
f 135/27/5 136/28/5 10/28/5
f 155/53/6 154/54/6 28/54/6
f 136/28/5 137/30/5 11/30/5
f 156/15/6 155/53/6 29/53/6
f 137/30/5 138/32/5 12/32/5
f 4/36/5 131/36/5 157/37/5
f 138/32/5 139/34/5 13/34/5
f 31/37/5 157/37/5 158/39/5
f 174/21/71 129/68/71 2/68/71
f 40/24/6 88/7/6 95/24/6
f 62/81/34 56/23/34 117/81/34
f 126/6/5 89/6/5 94/80/5
f 52/76/35 43/78/35 107/76/35
f 43/78/36 42/77/36 98/78/36
f 41/75/5 50/69/5 96/75/5
f 42/77/37 41/75/37 97/77/37
f 99/71/38 44/71/38 108/73/38
f 103/86/39 48/86/39 102/87/39
f 109/72/40 54/72/40 100/74/40
f 50/69/5 85/14/5 105/69/5
f 94/80/5 39/80/5 101/79/5
f 100/74/41 45/74/41 110/51/41
f 123/2/6 86/2/6 104/49/6
f 104/49/6 49/49/6 99/71/6
f 51/70/42 52/76/42 106/70/42
f 60/82/6 40/24/6 115/82/6
f 108/73/43 53/73/43 109/72/43
f 101/79/44 46/79/44 116/88/44
f 55/51/45 51/70/45 110/51/45
f 116/88/46 61/88/46 103/86/46
f 56/23/47 57/83/47 111/23/47
f 102/87/48 47/87/48 117/81/48
f 57/83/49 58/85/49 112/83/49
f 58/85/50 59/84/50 113/85/50
f 59/84/51 60/82/51 114/84/51
f 13/34/5 139/34/5 14/19/5
f 33/41/5 32/39/5 159/41/5
f 14/19/5 140/19/5 5/20/5
f 34/43/5 33/41/5 160/43/5
f 22/62/6 2/68/6 148/62/6
f 1/90/69 128/90/69 63/59/69
f 15/11/6 16/92/6 141/11/6
f 35/44/5 34/43/5 161/44/5
f 63/59/72 165/59/72 4/36/72
f 16/92/6 17/66/6 142/92/6
f 36/46/5 35/44/5 162/46/5
f 23/60/6 149/60/6 1/90/6
f 17/66/6 18/91/6 143/66/6
f 37/47/5 36/46/5 163/47/5
f 24/58/6 150/58/6 23/60/6
f 18/91/6 19/65/6 144/91/6
f 38/17/5 37/47/5 164/17/5
f 5/20/71 132/20/71 72/21/71
f 25/57/6 151/57/6 24/58/6
f 19/65/6 20/64/6 145/65/6
f 26/89/6 152/89/6 25/57/6
f 20/64/6 21/63/6 146/64/6
f 7/8/5 133/8/5 8/25/5
f 27/56/6 153/56/6 26/89/6
f 21/63/6 22/62/6 147/63/6
f 8/25/5 134/25/5 9/27/5
f 28/54/6 154/54/6 27/56/6
f 9/27/5 135/27/5 10/28/5
f 29/53/6 155/53/6 28/54/6
f 10/28/5 136/28/5 11/30/5
f 30/15/6 156/15/6 29/53/6
f 11/30/5 137/30/5 12/32/5
f 31/37/5 4/36/5 157/37/5
f 12/32/5 138/32/5 13/34/5
f 32/39/5 31/37/5 158/39/5
f 72/21/70 174/21/70 2/68/70
