# Blender v2.75 (sub 0) OBJ File: ''
# www.blender.org
mtllib ipad.mtl
o Cube
v 0.328476 -0.048317 -0.666579
v -0.328476 -0.048317 -0.666579
v 0.328476 -0.048317 0.666579
v -0.328476 -0.048317 0.666579
v 0.330560 -0.006965 -0.672954
v -0.330559 -0.006965 -0.672954
v 0.330559 -0.006965 0.672954
v -0.330560 -0.006965 0.672954
v 0.978681 -0.048317 0.000000
v -0.976812 -0.048317 -0.000000
v 0.984307 -0.006965 0.000000
v -0.982439 -0.006965 -0.000000
v 0.330559 -0.006965 0.000000
v -0.330560 -0.006965 0.000000
v 0.328476 -0.048317 -0.000000
v -0.328476 -0.048317 -0.000000
v 0.844133 -0.048317 -0.666579
v 0.978681 -0.048317 -0.540172
v 0.885711 -0.048317 -0.660393
v 0.923219 -0.048317 -0.642438
v 0.952985 -0.048317 -0.614472
v 0.972096 -0.048317 -0.579234
v 0.978681 -0.048317 0.540172
v 0.844133 -0.048317 0.666579
v 0.972096 -0.048317 0.579234
v 0.952985 -0.048317 0.614472
v 0.923219 -0.048317 0.642438
v 0.885711 -0.048317 0.660393
v -0.808628 -0.048317 0.666579
v -0.976813 -0.048317 0.540172
v -0.860600 -0.048317 0.660392
v -0.907484 -0.048317 0.642438
v -0.944692 -0.048317 0.614472
v -0.968581 -0.048317 0.579234
v -0.976812 -0.048317 -0.540173
v -0.808627 -0.048317 -0.666580
v -0.968581 -0.048317 -0.579234
v -0.944692 -0.048317 -0.614473
v -0.907484 -0.048317 -0.642438
v -0.860599 -0.048317 -0.660393
v 0.984308 -0.006965 -0.545338
v 0.848906 -0.006965 -0.672953
v 0.977681 -0.006965 -0.584773
v 0.958448 -0.006965 -0.620348
v 0.928493 -0.006965 -0.648581
v 0.890748 -0.006965 -0.666708
v 0.848906 -0.006965 0.672954
v 0.984307 -0.006965 0.545338
v 0.890747 -0.006965 0.666708
v 0.928493 -0.006965 0.648582
v 0.958448 -0.006965 0.620349
v 0.977680 -0.006965 0.584774
v -0.982439 -0.006965 0.545338
v -0.813187 -0.006965 0.672954
v -0.974155 -0.006965 0.584773
v -0.950115 -0.006965 0.620348
v -0.912671 -0.006965 0.648581
v -0.865489 -0.006965 0.666708
v -0.813187 -0.006965 -0.672954
v -0.982439 -0.006965 -0.545338
v -0.865489 -0.006965 -0.666708
v -0.912671 -0.006965 -0.648581
v -0.950114 -0.006965 -0.620349
v -0.974155 -0.006965 -0.584773
v 0.333333 -0.036714 -0.678571
v 0.333333 -0.014315 -0.678571
v -0.333333 -0.036714 -0.678571
v -0.333333 -0.014315 -0.678571
v 0.333333 -0.014315 0.678571
v 0.333333 -0.036714 0.678571
v -0.333334 -0.014315 0.678571
v -0.333334 -0.036714 0.678571
v -0.989928 -0.014315 -0.000000
v -0.989928 -0.036714 -0.000000
v 0.991796 -0.014315 0.000000
v 0.991796 -0.036714 0.000000
v 0.855259 -0.036714 -0.678571
v 0.855259 -0.014315 -0.678571
v 0.897452 -0.014315 -0.672273
v 0.897452 -0.036714 -0.672273
v 0.935514 -0.014315 -0.653995
v 0.935514 -0.036714 -0.653995
v 0.965720 -0.014315 -0.625527
v 0.965720 -0.036714 -0.625527
v 0.985114 -0.014315 -0.589655
v 0.985114 -0.036714 -0.589655
v 0.991797 -0.014315 -0.549890
v 0.991796 -0.036714 -0.549890
v 0.991796 -0.036714 0.549890
v 0.991796 -0.014315 0.549891
v 0.985114 -0.014315 0.589655
v 0.985114 -0.036714 0.589655
v 0.965720 -0.014315 0.625527
v 0.965720 -0.036714 0.625527
v 0.935513 -0.014315 0.653996
v 0.935514 -0.036714 0.653996
v 0.897451 -0.014315 0.672273
v 0.897451 -0.036714 0.672273
v 0.855259 -0.014315 0.678572
v 0.855259 -0.036714 0.678571
v -0.819256 -0.036714 0.678571
v -0.819256 -0.014315 0.678571
v -0.871997 -0.014315 0.672273
v -0.871997 -0.036714 0.672273
v -0.919575 -0.014315 0.653995
v -0.919574 -0.036714 0.653995
v -0.957333 -0.014315 0.625527
v -0.957333 -0.036714 0.625527
v -0.981575 -0.014315 0.589655
v -0.981575 -0.036714 0.589655
v -0.989928 -0.014315 0.549890
v -0.989928 -0.036714 0.549890
v -0.989928 -0.036714 -0.549890
v -0.989928 -0.014315 -0.549890
v -0.981574 -0.014315 -0.589655
v -0.981574 -0.036714 -0.589655
v -0.957332 -0.014315 -0.625527
v -0.957332 -0.036714 -0.625527
v -0.919574 -0.014315 -0.653996
v -0.919574 -0.036714 -0.653996
v -0.871996 -0.014315 -0.672273
v -0.871996 -0.036714 -0.672273
v -0.819256 -0.014315 -0.678571
v -0.819256 -0.036714 -0.678572
vn 0.000000 -1.000000 -0.000000
vn 0.000000 1.000000 0.000000
vn 0.020900 0.893800 0.448000
vn 0.000000 0.896400 0.443200
vn 0.000000 0.320500 0.947200
vn -0.387500 0.921400 0.031000
vn -0.378400 0.925600 0.000000
vn -0.922100 0.387000 0.000000
vn 0.000000 -0.390300 -0.920700
vn 0.000000 -0.927000 -0.375000
vn -0.014600 -0.925300 -0.379000
vn -0.017100 0.894200 0.447300
vn 0.922100 0.387000 0.000000
vn 0.378300 0.925600 0.000000
vn 0.385900 0.922200 0.024600
vn 0.018000 -0.925000 -0.379600
vn -0.387500 0.921400 -0.031000
vn 0.079700 0.338800 -0.937400
vn 0.020900 0.893800 -0.448000
vn 0.105600 0.906300 -0.409200
vn 0.285400 0.373700 -0.882500
vn 0.208100 0.924000 -0.320700
vn 0.290700 0.930000 -0.224900
vn 0.723300 0.410800 -0.554900
vn 0.360500 0.925600 -0.114800
vn 0.863000 0.404100 -0.303100
vn 0.385900 0.922200 -0.024600
vn 0.916200 0.392000 -0.082800
vn 0.916200 0.392000 0.082800
vn 0.360500 0.925600 0.114800
vn 0.863000 0.404100 0.303100
vn 0.290700 0.930000 0.224900
vn 0.723300 0.410800 0.554900
vn 0.208100 0.924000 0.320700
vn 0.105600 0.906300 0.409200
vn 0.285400 0.373700 0.882500
vn 0.079700 0.338800 0.937400
vn -0.064000 0.334700 0.940100
vn -0.086600 0.904000 0.418700
vn -0.236000 0.365700 0.900300
vn -0.179500 0.920300 0.347500
vn -0.266700 0.928100 0.259700
vn -0.664400 0.407700 0.626300
vn -0.352500 0.925000 0.141100
vn -0.840300 0.403900 0.361500
vn -0.914000 0.392600 0.102400
vn -0.914000 0.392600 -0.102400
vn -0.352500 0.925000 -0.141100
vn -0.840300 0.403900 -0.361500
vn -0.266800 0.928100 -0.259700
vn -0.664400 0.407700 -0.626300
vn -0.179500 0.920300 -0.347500
vn -0.086600 0.904000 -0.418700
vn -0.236000 0.365700 -0.900300
vn -0.017100 0.894200 -0.447300
vn -0.064000 0.334700 -0.940100
vn 0.360100 -0.932600 -0.021100
vn 0.904600 -0.418000 -0.083200
vn 0.911700 -0.410700 0.000000
vn -0.074300 -0.931800 -0.355300
vn -0.227900 -0.420500 -0.878200
vn -0.061300 -0.399400 -0.914700
vn -0.155300 -0.942100 -0.297200
vn -0.441100 -0.439600 -0.782300
vn -0.453400 0.394000 -0.799500
vn -0.649800 -0.445500 -0.615900
vn -0.826000 -0.435000 -0.358300
vn -0.235300 -0.945300 -0.225700
vn -0.902100 -0.419000 -0.102800
vn -0.321000 -0.938900 -0.124200
vn -0.321000 -0.938900 0.124200
vn -0.826000 -0.435000 0.358300
vn -0.902100 -0.419000 0.102800
vn -0.235300 -0.945300 0.225700
vn -0.649800 -0.445500 0.615900
vn -0.155300 -0.942100 0.297200
vn -0.441100 -0.439600 0.782300
vn -0.453400 0.394000 0.799500
vn -0.227900 -0.420500 0.878200
vn -0.061300 -0.399400 0.914700
vn -0.074300 -0.931800 0.355300
vn 0.091000 -0.933300 0.347400
vn 0.276100 -0.425600 0.861800
vn 0.076200 -0.402100 0.912400
vn 0.511100 -0.443900 0.736000
vn 0.524600 0.401100 0.751000
vn 0.708400 -0.446800 0.546400
vn 0.180900 -0.944200 0.275300
vn 0.849000 -0.434400 0.300700
vn 0.258100 -0.945900 0.196500
vn 0.904600 -0.418000 0.083200
vn 0.329700 -0.938600 0.101400
vn 0.329700 -0.938600 -0.101400
vn 0.849000 -0.434400 -0.300700
vn 0.258100 -0.945900 -0.196500
vn 0.708400 -0.446800 -0.546400
vn 0.180900 -0.944200 -0.275300
vn 0.511100 -0.443900 -0.736000
vn 0.524600 0.401100 -0.751000
vn 0.091000 -0.933300 -0.347400
vn 0.276100 -0.425600 -0.861800
vn 0.076200 -0.402100 -0.912400
vn -0.911700 -0.410700 0.000000
vn -0.361300 -0.932000 -0.026600
vn 0.000000 0.320500 -0.947200
vn 0.360100 -0.932600 0.021100
vn 0.000000 -0.390300 0.920700
vn -0.014600 -0.925300 0.379000
vn 0.000000 -0.927000 0.375000
vn 0.000000 0.896400 -0.443200
vn -0.361300 -0.932000 0.026600
vn 0.018000 -0.925000 0.379600
vn 0.354300 -0.935100 0.000000
vn -0.354300 -0.935100 0.000000
usemtl Material
s off
f 36//1 35//1 37//1
f 59//2 62//2 63//2
f 43//2 44//2 42//2
f 17//1 21//1 22//1
f 24//1 26//1 27//1
f 8//2 53//2 54//2
f 14//2 8//2 7//2
f 3//1 4//1 16//1
f 15//1 16//1 2//1
f 6//2 14//2 13//2
f 48//2 47//2 52//2
f 4//1 29//1 30//1
f 35//1 36//1 2//1
f 36//1 39//1 40//1
f 36//1 37//1 38//1
f 16//1 10//1 35//1
f 35//1 2//1 16//1
f 36//1 38//1 39//1
f 59//2 60//2 6//2
f 14//2 60//2 12//2
f 59//2 63//2 64//2
f 59//2 61//2 62//2
f 60//2 14//2 6//2
f 59//2 64//2 60//2
f 13//2 11//2 41//2
f 41//2 5//2 13//2
f 45//2 46//2 42//2
f 42//2 44//2 45//2
f 42//2 41//2 43//2
f 41//2 42//2 5//2
f 18//1 1//1 17//1
f 18//1 9//1 15//1
f 17//1 22//1 18//1
f 17//1 20//1 21//1
f 20//1 17//1 19//1
f 1//1 18//1 15//1
f 23//1 15//1 9//1
f 23//1 24//1 3//1
f 24//1 27//1 28//1
f 24//1 25//1 26//1
f 3//1 15//1 23//1
f 23//1 25//1 24//1
f 53//2 8//2 14//2
f 57//2 58//2 54//2
f 54//2 56//2 57//2
f 54//2 53//2 55//2
f 53//2 14//2 12//2
f 55//2 56//2 54//2
f 13//2 14//2 7//2
f 15//1 3//1 16//1
f 1//1 15//1 2//1
f 5//2 6//2 13//2
f 13//2 48//2 11//2
f 47//2 51//2 52//2
f 47//2 49//2 50//2
f 48//2 7//2 47//2
f 7//2 48//2 13//2
f 47//2 50//2 51//2
f 30//1 10//1 16//1
f 29//1 34//1 30//1
f 29//1 32//1 33//1
f 32//1 29//1 31//1
f 30//1 16//1 4//1
f 29//1 33//1 34//1
s 1
f 47//3 7//4 69//5
f 53//6 12//7 73//8
f 67//9 2//10 36//11
f 1//10 2//10 67//9
f 7//4 8//4 71//5
f 71//5 8//4 54//12
f 75//13 11//14 48//15
f 17//16 1//10 65//9
f 73//8 12//7 60//17
f 78//18 42//19 46//20
f 79//21 46//20 45//22
f 45//22 44//23 83//24
f 44//23 43//25 85//26
f 43//25 41//27 87//28
f 90//29 48//15 52//30
f 91//31 52//30 51//32
f 93//33 51//32 50//34
f 50//34 49//35 97//36
f 49//35 47//3 99//37
f 102//38 54//12 58//39
f 103//40 58//39 57//41
f 57//41 56//42 107//43
f 56//42 55//44 109//45
f 55//44 53//6 111//46
f 114//47 60//17 64//48
f 115//49 64//48 63//50
f 117//51 63//50 62//52
f 62//52 61//53 121//54
f 61//53 59//55 123//56
f 41//27 11//14 75//13
f 18//57 88//58 76//59
f 87//28 75//13 76//59
f 40//60 122//61 124//62
f 121//54 123//56 124//62
f 39//63 120//64 122//61
f 119//65 121//54 122//61
f 118//66 120//64 39//63
f 117//51 119//65 120//64
f 116//67 118//66 38//68
f 115//49 117//51 118//66
f 113//69 116//67 37//70
f 114//47 115//49 116//67
f 34//71 110//72 112//73
f 109//45 111//46 112//73
f 33//74 108//75 110//72
f 107//43 109//45 110//72
f 32//76 106//77 108//75
f 105//78 107//43 108//75
f 104//79 106//77 32//76
f 103//40 105//78 106//77
f 101//80 104//79 31//81
f 102//38 103//40 104//79
f 28//82 98//83 100//84
f 97//36 99//37 100//84
f 96//85 98//83 28//82
f 95//86 97//36 98//83
f 94//87 96//85 27//88
f 93//33 95//86 96//85
f 92//89 94//87 26//90
f 91//31 93//33 94//87
f 89//91 92//89 25//92
f 90//29 91//31 92//89
f 22//93 86//94 88//58
f 85//26 87//28 88//58
f 21//95 84//96 86//94
f 83//24 85//26 86//94
f 20//97 82//98 84//96
f 81//99 83//24 84//96
f 19//100 80//101 82//98
f 79//21 81//99 82//98
f 77//102 80//101 19//100
f 78//18 79//21 80//101
f 74//103 113//69 35//104
f 73//8 114//47 113//69
f 42//19 78//18 66//105
f 77//102 65//9 66//105
f 76//59 89//91 23//106
f 75//13 90//29 89//91
f 72//107 101//80 29//108
f 71//5 102//38 101//80
f 70//107 72//107 4//109
f 69//5 71//5 72//107
f 66//105 68//105 6//110
f 65//9 67//9 68//105
f 68//105 123//56 59//55
f 67//9 124//62 123//56
f 30//111 112//73 74//103
f 111//46 73//8 74//103
f 24//112 100//84 70//107
f 99//37 69//5 70//107
f 99//37 47//3 69//5
f 111//46 53//6 73//8
f 124//62 67//9 36//11
f 65//9 1//10 67//9
f 69//5 7//4 71//5
f 102//38 71//5 54//12
f 90//29 75//13 48//15
f 77//102 17//16 65//9
f 114//47 73//8 60//17
f 79//21 78//18 46//20
f 81//99 79//21 45//22
f 81//99 45//22 83//24
f 83//24 44//23 85//26
f 85//26 43//25 87//28
f 91//31 90//29 52//30
f 93//33 91//31 51//32
f 95//86 93//33 50//34
f 95//86 50//34 97//36
f 97//36 49//35 99//37
f 103//40 102//38 58//39
f 105//78 103//40 57//41
f 105//78 57//41 107//43
f 107//43 56//42 109//45
f 109//45 55//44 111//46
f 115//49 114//47 64//48
f 117//51 115//49 63//50
f 119//65 117//51 62//52
f 119//65 62//52 121//54
f 121//54 61//53 123//56
f 87//28 41//27 75//13
f 9//113 18//57 76//59
f 88//58 87//28 76//59
f 36//11 40//60 124//62
f 122//61 121//54 124//62
f 40//60 39//63 122//61
f 120//64 119//65 122//61
f 38//68 118//66 39//63
f 118//66 117//51 120//64
f 37//70 116//67 38//68
f 116//67 115//49 118//66
f 35//104 113//69 37//70
f 113//69 114//47 116//67
f 30//111 34//71 112//73
f 110//72 109//45 112//73
f 34//71 33//74 110//72
f 108//75 107//43 110//72
f 33//74 32//76 108//75
f 106//77 105//78 108//75
f 31//81 104//79 32//76
f 104//79 103//40 106//77
f 29//108 101//80 31//81
f 101//80 102//38 104//79
f 24//112 28//82 100//84
f 98//83 97//36 100//84
f 27//88 96//85 28//82
f 96//85 95//86 98//83
f 26//90 94//87 27//88
f 94//87 93//33 96//85
f 25//92 92//89 26//90
f 92//89 91//31 94//87
f 23//106 89//91 25//92
f 89//91 90//29 92//89
f 18//57 22//93 88//58
f 86//94 85//26 88//58
f 22//93 21//95 86//94
f 84//96 83//24 86//94
f 21//95 20//97 84//96
f 82//98 81//99 84//96
f 20//97 19//100 82//98
f 80//101 79//21 82//98
f 17//16 77//102 19//100
f 77//102 78//18 80//101
f 10//114 74//103 35//104
f 74//103 73//8 113//69
f 5//110 42//19 66//105
f 78//18 77//102 66//105
f 9//113 76//59 23//106
f 76//59 75//13 89//91
f 4//109 72//107 29//108
f 72//107 71//5 101//80
f 3//109 70//107 4//109
f 70//107 69//5 72//107
f 5//110 66//105 6//110
f 66//105 65//9 68//105
f 6//110 68//105 59//55
f 68//105 67//9 123//56
f 10//114 30//111 74//103
f 112//73 111//46 74//103
f 3//109 24//112 70//107
f 100//84 99//37 70//107
